<?xml version="1.0" standalone="no"?><!DOCTYPE svg PUBLIC "-//W3C//DTD SVG 1.1//EN" "http://www.w3.org/Graphics/SVG/1.1/DTD/svg11.dtd"><svg t="1568094594978" class="icon" viewBox="0 0 1024 1024" version="1.1" xmlns="http://www.w3.org/2000/svg" p-id="1121" width="64" height="64" xmlns:xlink="http://www.w3.org/1999/xlink"><defs><style type="text/css"></style></defs><path d="M930.03776 159.03744 627.98336 159.03744 588.39552 60.22656 435.60448 60.22656 396.01152 159.03744 93.96224 159.03744 93.96224 128.62976 375.43936 128.62976 415.03232 29.824 608.96768 29.824 648.56064 128.62976 930.03776 128.62976 930.03776 159.03744Z" p-id="1122" fill="#2c2c2c"></path><path d="M771.97312 994.18112 252.02176 994.18112c-46.29504 0-83.95264-37.6576-83.95264-83.968L168.06912 287.1296l30.40256 0 0 623.0784c0 29.53216 24.02304 53.56032 53.55008 53.56032l519.95136 0c29.52704 0 53.55008-24.02816 53.55008-53.56032L825.5232 287.1296l30.40256 0 0 623.0784C855.93088 956.5184 818.26816 994.18112 771.97312 994.18112L771.97312 994.18112z" p-id="1123" fill="#2c2c2c"></path><path d="M397.98784 332.17024 428.3904 332.17024 428.3904 770.70848 397.98784 770.70848 397.98784 332.17024Z" p-id="1124" fill="#2c2c2c"></path><path d="M595.60448 332.17024 626.00704 332.17024 626.00704 770.70848 595.60448 770.70848 595.60448 332.17024Z" p-id="1125" fill="#2c2c2c"></path></svg>